<svg width="141" height="205" viewBox="0 0 141 205" fill="none" xmlns="http://www.w3.org/2000/svg">
<path d="M69.7444 0C84.49 25.1637 100.559 49.4708 117.95 72.9219C126.451 85.0149 133.113 98.1035 137.934 112.188C144.168 135.735 140.195 157.355 126.014 177.046C109.938 196.591 89.1945 205.53 63.7844 203.865C36.717 200.867 17.4935 187.019 6.11353 162.321C-1.9191 142.522 -2.03583 122.655 5.76294 102.722C9.71019 93.7604 14.3849 85.2295 19.7864 77.1289C35.0593 56.0531 49.5504 34.4338 63.259 12.2705C65.6086 8.27249 67.7699 4.18207 69.7444 0ZM100.596 81.3359C102.957 92.649 102.198 103.751 98.3176 114.642C93.9276 124.99 87.7338 134.105 79.7366 141.987C77.6951 144.434 75.8254 147.005 74.1272 149.7C70.5033 155.43 68.5745 161.682 68.342 168.456C68.1692 175.079 70.6236 180.455 75.7043 184.583C89.1062 183.345 100.267 177.678 109.186 167.58C123.101 149.518 125.672 129.885 116.899 108.682C112.25 99.0223 106.815 89.9071 100.596 81.3359ZM70.095 36.4609C59.5617 53.4794 48.4018 70.0738 36.6145 86.2441C30.2619 94.8335 25.2366 104.183 21.5393 114.291C15.2642 135.159 19.2377 153.74 33.4592 170.034C39.7381 176.533 47.2756 180.798 56.0715 182.83C55.7506 182.699 55.4583 182.524 55.1956 182.305C40.6021 163.32 39.6671 143.687 52.3909 123.406C58.721 114.622 64.9148 105.74 70.9719 96.7617C72.559 94.0549 73.9614 91.2501 75.179 88.3477C81.8825 70.1929 80.1876 52.8971 70.095 36.4609Z" fill="#DDD6DF"/>
</svg>
